<svg viewBox="0 0 348.38 52.98" xmlns="http://www.w3.org/2000/svg" xmlns:xlink="http://www.w3.org/1999/xlink"><clipPath id="a" transform="translate(-131.44 -370.14)"><path clip-rule="evenodd" d="m140.41 402 3.65-7.62-2.32-2.06 4.84-5.44.75.68 2.77-5.78a10.57 10.57 0 0 1 1.73-2.38 6.5 6.5 0 0 1 3.3-1.92 4.81 4.81 0 0 1 3.23.51 6.89 6.89 0 0 1 1.53 1.14l13.11 13.67 5-5.23-13-13.49v-.08a14.15 14.15 0 0 0 -3.23-2.38 11.88 11.88 0 0 0 -8-1.24 13.62 13.62 0 0 0 -7.11 4 17.52 17.52 0 0 0 -2.95 4.07l-.08.15-9.73 20.31c-3 6.16-3 11.58-1.26 15.74a13.49 13.49 0 0 0 5 6.05 14.72 14.72 0 0 0 7.4 2.42c4.93.27 10.49-1.7 15.22-6.54l1.57-1.6-5.23-5-1.6 1.49c-3.15 3.22-6.65 4.54-9.65 4.38a7.51 7.51 0 0 1 -3.76-1.2 6.37 6.37 0 0 1 -2.33-2.83c-1-2.37-.84-5.71 1.12-9.8zm3.65-7.62 14.78 13.14 5-5.24-16.56-14.72-.75-.68-4.84 5.44 2.32 2.06zm24.74 13.27-4.62 4.79c4.31 4.2 8.88 6.77 13.84 7.08s9.77-1.57 14.82-6.17l-5.09-5.19c-3.39 3-6.47 4.28-9.31 4.11-3.06-.19-6.14-2-9.24-5.08l-.42.44zm9.28-9.64 9.29 9.64 5.12-5 .5.51-9.92-10.3-5 5.23zm-14.19 4.27-5 5.24-2.3 2.39 5.23 5 2.36-2.45 4.62-4.79.42-.44 8.86-9.2 5-5.23 13.15-13.65a7.13 7.13 0 0 1 1.57-1.15 4.81 4.81 0 0 1 3.23-.51 6.42 6.42 0 0 1 3.3 1.92 10.59 10.59 0 0 1 1.74 2.38l2.91 6.08 3.3 6.89 3.48 7.25c2 4.09 2.11 7.43 1.11 9.8a6.31 6.31 0 0 1 -2.33 2.83 7.5 7.5 0 0 1 -3.75 1.2c-3 .16-6.51-1.16-9.65-4.38l-2.14-2.15-1-1-5-5.16-.5-.51-5.12 5-.06.06.46.47 5.09 5.19.89.92 2.17 2.21c4.73 4.84 10.3 6.81 15.23 6.54a14.66 14.66 0 0 0 7.39-2.42 13.51 13.51 0 0 0 5-6.05c1.74-4.16 1.69-9.58-1.26-15.74l-9.74-20.31-.07-.15a18.12 18.12 0 0 0 -3-4.07 13.7 13.7 0 0 0 -7.11-4 11.91 11.91 0 0 0 -8 1.24 14.37 14.37 0 0 0 -3.23 2.38l-.08.09-13 13.49-5 5.23-9.15 9.5zm45.11-14.4-16 15.22 5.08 5.19 14.2-13.56-3.3-6.89z"/></clipPath><path d="m451.75 403.69v7.22h-5.66a8.45 8.45 0 0 1 -6.27-2.26 8.55 8.55 0 0 1 -2.23-6.29v-9h-4.39v-1.9l10.72-11.46h1.68v7h6v6.33h-5.8v7.67a2.75 2.75 0 0 0 .73 2 2.72 2.72 0 0 0 2 .73zm28.07-16.69-9.61 23.91h-7.48l-9.73-23.91h9l4.52 14.17 4.48-14.17z" fill="#0affff" transform="translate(-131.44 -370.14)"/><path d="m245.1 377h8.1v7h-8.1zm-5 35.73h2c2 0 3-1.07 3-3.19v-22.54h8.23v23.24a9.55 9.55 0 0 1 -2.67 7.22q-2.69 2.57-7.51 2.57h-3.05v-7.26zm30.39-1.07a14.57 14.57 0 0 1 -5.37-.95 12.81 12.81 0 0 1 -4.25-2.66 12.07 12.07 0 0 1 -2.78-4 13.71 13.71 0 0 1 0-10.23 12.21 12.21 0 0 1 2.78-4 13 13 0 0 1 4.25-2.65 15.5 15.5 0 0 1 10.74 0 12.8 12.8 0 0 1 4.24 2.65 11.92 11.92 0 0 1 2.78 4 13.58 13.58 0 0 1 0 10.23 11.79 11.79 0 0 1 -2.78 4 12.66 12.66 0 0 1 -4.24 2.66 14.61 14.61 0 0 1 -5.37.95zm0-7.39a4.92 4.92 0 0 0 3.7-1.48 5.93 5.93 0 0 0 0-7.75 4.92 4.92 0 0 0 -3.7-1.48 5 5 0 0 0 -3.72 1.48 5.87 5.87 0 0 0 0 7.75 5 5 0 0 0 3.72 1.48zm41-17.31-10 22.84a33.09 33.09 0 0 1 -2.41 4.65 12.78 12.78 0 0 1 -2.66 3.08 9.11 9.11 0 0 1 -3.21 1.7 14 14 0 0 1 -4.07.53h-2.83v-7.08h2.26a9.26 9.26 0 0 0 2-.18 3.48 3.48 0 0 0 1.37-.59 4 4 0 0 0 1-1.18 11.82 11.82 0 0 0 .84-1.86l-9.85-21.87h8.94l5.05 13.15 4.73-13.15zm10.76 24.7a14.24 14.24 0 0 1 -4.39-.62 9.44 9.44 0 0 1 -3.3-1.75 7.87 7.87 0 0 1 -2.1-2.72 8.19 8.19 0 0 1 -.75-3.54h7.92a2.34 2.34 0 0 0 .8 1.93 3 3 0 0 0 1.95.64 2.94 2.94 0 0 0 1.64-.47 1.55 1.55 0 0 0 .7-1.39 1.49 1.49 0 0 0 -1.19-1.44 20 20 0 0 0 -2.88-.73c-.91-.15-1.88-.35-2.9-.6a9.48 9.48 0 0 1 -2.81-1.19 6.42 6.42 0 0 1 -2.1-2.2 6.77 6.77 0 0 1 -.82-3.54 7 7 0 0 1 .73-3.25 7.3 7.3 0 0 1 2.06-2.48 9.46 9.46 0 0 1 3.21-1.59 14.73 14.73 0 0 1 4.18-.56 14.13 14.13 0 0 1 4.16.58 9.24 9.24 0 0 1 3.17 1.64 7.42 7.42 0 0 1 2 2.56 7.94 7.94 0 0 1 .78 3.32h-7.7a2.06 2.06 0 0 0 -.69-1.7 2.84 2.84 0 0 0 -1.84-.55 2.55 2.55 0 0 0 -1.61.46 1.57 1.57 0 0 0 -.6 1.31c0 .68.4 1.14 1.22 1.39a26.09 26.09 0 0 0 2.9.69c.94.18 1.93.38 3 .62a9.55 9.55 0 0 1 2.86 1.13 6.17 6.17 0 0 1 2.14 2.14 6.82 6.82 0 0 1 .85 3.63 7.6 7.6 0 0 1 -.76 3.39 7.36 7.36 0 0 1 -2.14 2.61 10.25 10.25 0 0 1 -3.35 1.69 15 15 0 0 1 -4.33.59zm30.32-8v7.22h-5.67a8.44 8.44 0 0 1 -6.26-2.26 8.56 8.56 0 0 1 -2.24-6.29v-9h-4.4v-1.9l10.75-11.43h1.69v7h6v6.33h-5.8v7.67a2.53 2.53 0 0 0 2.74 2.74zm3.9-26.65h8.1v6.99h-8.1v-7zm-.05 10h8.24v23.91h-8.24v-23.92zm25.23 24.7a14.22 14.22 0 0 1 -5.29-.95 12.6 12.6 0 0 1 -4.18-2.66 11.75 11.75 0 0 1 -2.74-4 13.21 13.21 0 0 1 -1-5.13 13.07 13.07 0 0 1 1-5.11 11.78 11.78 0 0 1 2.72-4 12.24 12.24 0 0 1 4.18-2.61 14.81 14.81 0 0 1 5.31-.93 14.3 14.3 0 0 1 4.7.75 12.08 12.08 0 0 1 3.83 2.15 11.87 11.87 0 0 1 2.74 3.34 12.11 12.11 0 0 1 1.4 4.34h-8a4.67 4.67 0 0 0 -1.79-2.33 5 5 0 0 0 -2.86-.86 4.69 4.69 0 0 0 -3.58 1.46 6.06 6.06 0 0 0 0 7.7 4.63 4.63 0 0 0 3.56 1.51 4.7 4.7 0 0 0 2.93-.95 5 5 0 0 0 1.72-2.55h8.1a13.21 13.21 0 0 1 -1.43 4.45 11.78 11.78 0 0 1 -2.77 3.43 12.88 12.88 0 0 1 -3.85 2.22 13.56 13.56 0 0 1 -4.7.79zm30.91-.79-6-10.1v10.1h-8.24v-32.55h8.24v18l5.67-9.39h9.25l-7.44 11.38 8.19 12.53zm11.55-7.66h8v7.66h-8z" fill="#f7f7f7" transform="translate(-131.44 -370.14)"/><g fill-rule="evenodd"><path d="m140.41 402 3.65-7.62-2.32-2.06 4.84-5.44.75.68 2.77-5.78a10.57 10.57 0 0 1 1.73-2.38 6.5 6.5 0 0 1 3.3-1.92 4.81 4.81 0 0 1 3.23.51 6.89 6.89 0 0 1 1.53 1.14l13.11 13.67 5-5.23-13-13.49v-.08a14.15 14.15 0 0 0 -3.23-2.38 11.88 11.88 0 0 0 -8-1.24 13.62 13.62 0 0 0 -7.11 4 17.52 17.52 0 0 0 -2.95 4.07l-.08.15-9.73 20.31c-3 6.16-3 11.58-1.26 15.74a13.49 13.49 0 0 0 5 6.05 14.72 14.72 0 0 0 7.4 2.42c4.93.27 10.49-1.7 15.22-6.54l1.57-1.6-5.23-5-1.6 1.49c-3.15 3.22-6.65 4.54-9.65 4.38a7.51 7.51 0 0 1 -3.76-1.2 6.37 6.37 0 0 1 -2.33-2.83c-1-2.37-.84-5.71 1.12-9.8zm3.65-7.62 14.78 13.14 5-5.24-16.56-14.72-.75-.68-4.84 5.44 2.32 2.06zm24.74 13.27-4.62 4.79c4.31 4.2 8.88 6.77 13.84 7.08s9.77-1.57 14.82-6.17l-5.09-5.19c-3.39 3-6.47 4.28-9.31 4.11-3.06-.19-6.14-2-9.24-5.08l-.42.44zm9.28-9.64 9.29 9.64 5.12-5 .5.51-9.92-10.3-5 5.23zm-14.19 4.27-5 5.24-2.3 2.39 5.23 5 2.36-2.45 4.62-4.79.42-.44 8.86-9.2 5-5.23 13.15-13.65a7.13 7.13 0 0 1 1.57-1.15 4.81 4.81 0 0 1 3.23-.51 6.42 6.42 0 0 1 3.3 1.92 10.59 10.59 0 0 1 1.74 2.38l2.91 6.08 3.3 6.89 3.48 7.25c2 4.09 2.11 7.43 1.11 9.8a6.31 6.31 0 0 1 -2.33 2.83 7.5 7.5 0 0 1 -3.75 1.2c-3 .16-6.51-1.16-9.65-4.38l-2.14-2.15-1-1-5-5.16-.5-.51-5.12 5-.06.06.46.47 5.09 5.19.89.92 2.17 2.21c4.73 4.84 10.3 6.81 15.23 6.54a14.66 14.66 0 0 0 7.39-2.42 13.51 13.51 0 0 0 5-6.05c1.74-4.16 1.69-9.58-1.26-15.74l-9.74-20.31-.07-.15a18.12 18.12 0 0 0 -3-4.07 13.7 13.7 0 0 0 -7.11-4 11.91 11.91 0 0 0 -8 1.24 14.37 14.37 0 0 0 -3.23 2.38l-.08.09-13 13.49-5 5.23-9.15 9.5zm45.11-14.4-16 15.22 5.08 5.19 14.2-13.56-3.3-6.89z" fill="#0affff" transform="translate(-131.44 -370.14)"/><g clip-path="url(#a)" fill="#09abab"><path d="m188.79 417-5.13-5.33-1.7-1.76.19-.2c.27-.28.58-.55.84-.84l.12-.12-.07.08.38-.23a3.09 3.09 0 0 0 1-1 2.41 2.41 0 0 0 .77-.68 2.25 2.25 0 0 0 .71-.83l2.09 2.16.42.45 4.62 4.78 1.34 1.4a2.52 2.52 0 0 0 -.25.21l-.38.26a2.81 2.81 0 0 0 -.66.52l-.57.38a6.06 6.06 0 0 0 -.54.47l-.53.42c-.3.24-.57.54-.88.76l-.51.36z" transform="translate(-131.44 -370.14)"/><path d="m168.39 416 5.13-5.32 1.7-1.77-.19-.19c-.27-.29-.58-.55-.84-.85l-.12-.11.07.07-.38-.23a3.27 3.27 0 0 1 -1-1 2.53 2.53 0 0 1 -.77-.68 2.37 2.37 0 0 1 -.71-.84l-2.09 2.17-.42.44-4.62 4.79-1.34 1.39a2.43 2.43 0 0 1 .25.2c.13.09.26.17.38.27a2.54 2.54 0 0 1 .66.51l.57.38c.21.14.35.32.54.47l.53.43c.3.23.57.53.88.75l.52.37 1.21-1.27z" transform="translate(-131.44 -370.14)"/></g><path d="m32.44 32.16-16.55-14.72-3.27 6.82 14.77 13.14z" fill="#09abab"/><path d="m77.53 17.74-15.92 15.22 5.04 5.22 14.18-13.55z" fill="#09abab"/></g></svg>